#!OML:ASF F:\VICON\USERDATA\INSTALL\rory3\rory3.ASF
:FULLY-SPECIFIED
:DEGREES
2522
root 0.209589 18.3722 -1.42268 -171.75 42.9374 183.958
lowerback 8.71822 3.81048 -0.252917
upperback 4.41993 5.40959 -4.29472
thorax 0.117427 2.92475 -4.75277
lowerneck -5.79603 11.8731 -2.72786
upperneck 30.3762 20.8586 0.622296
head 10.4045 10.1074 2.88767
rclavicle 1.45113e-013 -3.33958e-014
rhumerus -8.65549 48.5567 -94.915
rradius 114.52
rwrist -8.33861
rhand -44.5777 6.92353
rfingers 7.12502
rthumb -17.3772 -22.3197
lclavicle 1.45113e-013 -3.33958e-014
lhumerus -9.20806 2.16756 84.3844
lradius 62.0798
lwrist 104.956
lhand -25.492 48.3621
lfingers 7.12502
lthumb 1.03635 78.3394
rfemur -5.35956 11.5052 28.139
rtibia 29.601
rfoot -22.8232 -9.51474
rtoes -2.91426
lfemur -35.089 5.03627 -19.6256
ltibia 30.0638
lfoot -1.01743 15.6506
ltoes 8.70345
2523
root 0.155862 18.3587 -1.32479 -171.77 42.1759 183.933
lowerback 9.06805 3.59578 -0.211196
upperback 4.46411 5.12975 -4.31359
thorax -0.0454457 2.7891 -4.80192
lowerneck -6.19095 11.9295 -2.59019
upperneck 30.3421 20.8988 0.587402
head 10.4825 10.1094 2.89697
rclavicle -3.53837e-014 4.77083e-015
rhumerus -8.25723 49.3056 -94.667
rradius 114.296
rwrist -7.43747
rhand -44.7333 7.6808
rfingers 7.12502
rthumb -17.527 -21.5491
lclavicle -3.53837e-014 4.77083e-015
lhumerus -8.59076 2.62312 84.5047
lradius 61.4417
lwrist 105.505
lhand -25.6069 48.3822
lfingers 7.12502
lthumb 0.925397 78.3599
rfemur -5.50772 11.2417 28.4564
rtibia 29.2166
rfoot -23.1626 -10.4996
rtoes -2.28461
lfemur -35.5289 5.30927 -19.7618
ltibia 29.8966
lfoot -0.0636064 14.7339
ltoes 7.93385
2524
root 0.110229 18.3583 -1.2713 -171.916 41.9254 183.892
lowerback 9.04876 3.59171 -0.063709
upperback 4.51882 5.14384 -4.31602
thorax 0.036374 2.80255 -4.88374
lowerneck -6.21035 11.889 -2.65266
upperneck 30.2588 20.8333 0.569782
head 10.4507 10.0754 2.88943
rclavicle 9.14409e-015 -2.06736e-014
rhumerus -8.2995 50.0761 -94.5792
rradius 113.993
rwrist -6.79936
rhand -44.8925 9.2233
rfingers 7.12502
rthumb -17.6802 -19.9929
lclavicle 9.14409e-015 -2.06736e-014
lhumerus -8.27754 3.11808 84.8665
lradius 60.7011
lwrist 105.643
lhand -25.1315 48.2552
lfingers 7.12502
lthumb 1.38456 78.2304
rfemur -5.39906 11.1259 28.5561
rtibia 28.7737
rfoot -23.4336 -11.3581
rtoes -2.75546
lfemur -35.6287 5.47177 -19.869
ltibia 29.723
lfoot 0.47798 14.4286
ltoes 7.17941
2525
root 0.0615656 18.355 -1.18375 -172.309 41.2827 183.668
lowerback 9.52414 3.50069 -0.145319
upperback 4.58049 5.02268 -4.32786
thorax -0.175294 2.74625 -4.87721
lowerneck -6.25478 11.8163 -2.69558
upperneck 30.1202 20.6686 0.627762
head 10.395 10.0056 2.89153
rclavicle -8.74653e-015 5.40694e-014
rhumerus -8.3366 50.7498 -94.489
rradius 113.567
rwrist -6.51375
rhand -45.2076 11.9402
rfingers 7.12502
rthumb -17.9834 -17.2483
lclavicle -8.74653e-015 5.40694e-014
lhumerus -7.85986 3.57716 85.2651
lradius 59.7992
lwrist 105.579
lhand -24.7608 48.1189
lfingers 7.12502
lthumb 1.74255 78.0915
rfemur -5.18413 10.6693 28.6838
rtibia 28.3598
rfoot -23.6599 -12.1974
rtoes -2.84387
lfemur -35.7425 6.04965 -20.2652
ltibia 29.508
lfoot 1.47643 13.4147
ltoes 6.50475
2526
root 0.0184737 18.3632 -1.12896 -172.472 41.1708 183.296
lowerback 9.19098 3.53397 -0.24323
upperback 4.6839 5.09016 -4.51973
thorax 0.130928 2.7937 -4.99608
lowerneck -6.56744 11.8052 -2.66551
upperneck 30.1062 20.574 0.780954
head 10.43 9.96496 2.95384
rclavicle 1.70955e-014 6.67916e-014
rhumerus -8.12567 51.4652 -94.377
rradius 112.881
rwrist -5.91544
rhand -45.6345 14.6725
rfingers 7.12502
rthumb -18.3942 -14.4778
lclavicle 1.70955e-014 6.67916e-014
lhumerus -7.26951 4.24967 85.504
lradius 58.7615
lwrist 105.684
lhand -25.9888 48.7388
lfingers 7.12502
lthumb 0.556599 78.7178
rfemur -5.19808 10.6752 28.3797
rtibia 27.8497
rfoot -23.9763 -12.3186
rtoes -0.794228
lfemur -35.9884 6.30946 -20.6485
ltibia 29.3091
lfoot 1.90841 13.1096
ltoes 6.57424
2527
root -0.0291297 18.3653 -1.05628 -172.652 40.822 183.03
lowerback 9.28787 3.48583 -0.412258
upperback 4.68107 5.01783 -4.59183
thorax 0.0615777 2.75834 -4.97935
lowerneck -6.77377 11.7856 -2.65082
upperneck 30.1832 20.5249 0.891511
head 10.4844 9.94582 3.00695
rclavicle -2.62396e-014 4.45278e-014
rhumerus -8.07627 52.2591 -94.3271
rradius 112.171
rwrist -4.94674
rhand -45.8831 15.5528
rfingers 7.12502
rthumb -18.6332 -13.5748
lclavicle -2.62396e-014 4.45278e-014
lhumerus -6.86863 5.19008 85.804
lradius 57.7369
lwrist 105.6
lhand -25.557 48.2404
lfingers 7.12502
lthumb 0.973626 78.2179
rfemur -5.21882 10.7231 28.2874
rtibia 27.3803
rfoot -24.2056 -12.7961
rtoes 0.899335
lfemur -36.2249 6.50744 -20.9026
ltibia 29.1245
lfoot 2.49954 12.5224
ltoes 6.1736
2528
root -0.0782739 18.3648 -0.983615 -172.737 40.4834 182.955
lowerback 9.4213 3.4672 -0.277405
upperback 4.62974 5.00204 -4.69546
thorax -0.0446909 2.7549 -5.17597
lowerneck -6.45894 11.753 -2.62395
upperneck 29.8549 20.3886 0.896805
head 10.305 9.91199 2.93851
rclavicle 3.57812e-015 -3.02153e-014
rhumerus -8.45657 52.8928 -94.6602
rradius 111.679
rwrist -4.26284
rhand -45.5958 15.3659
rfingers 7.12502
rthumb -18.3569 -13.7879
lclavicle 3.57812e-015 -3.02153e-014
lhumerus -6.60089 6.08506 86.1252
lradius 56.6955
lwrist 105.174
lhand -24.8446 48.6606
lfingers 7.12502
lthumb 1.6617 78.6339
rfemur -5.25408 10.7024 28.3623
rtibia 26.945
rfoot -24.1968 -13.5702
rtoes 0.850615
lfemur -36.4419 6.72389 -20.9841
ltibia 28.9498
lfoot 3.21581 11.8894
ltoes 5.63677
2529
root -0.126656 18.3604 -0.911108 -172.7 40.2513 182.913
lowerback 9.32947 3.45406 0.00129365
upperback 4.66363 5.03009 -4.96511
thorax 0.0938311 2.78898 -5.60928
lowerneck -6.32704 11.7798 -2.41303
upperneck 29.4312 20.2471 0.954466
head 10.136 9.88347 2.87121
rclavicle -1.03368e-014 -7.4743e-014
rhumerus -8.59886 53.3504 -95.0579
rradius 111.296
rwrist -3.92089
rhand -44.6984 15.3311
rfingers 7.12502
rthumb -17.4934 -13.9019
lclavicle -1.03368e-014 -7.4743e-014
lhumerus -6.1213 6.90042 86.2154
lradius 55.5422
lwrist 104.673
lhand -24.3982 46.6853
lfingers 7.12502
lthumb 2.09278 76.6548
rfemur -5.36588 10.8557 28.4197
rtibia 26.5443
rfoot -24.2194 -14.2414
rtoes 0.920347
lfemur -36.7474 7.08241 -21.0608
ltibia 28.775
lfoot 3.91715 11.1557
ltoes 5.56495
2530
root -0.179431 18.3585 -0.838164 -172.71 40.0394 182.834
lowerback 9.27233 3.42919 0.0432519
upperback 4.81894 5.03291 -5.09389
thorax 0.304115 2.80876 -5.75668
lowerneck -6.70536 11.8056 -2.32252
upperneck 29.2388 20.1916 0.922422
head 10.1466 9.83997 2.86368
rclavicle -3.57812e-014 -3.97569e-014
rhumerus -8.22396 53.9619 -94.8452
rradius 110.717
rwrist -3.38892
rhand -44.0579 15.343
rfingers 7.12502
rthumb -16.8769 -13.9437
lclavicle -3.57812e-014 -3.97569e-014
lhumerus -5.45097 8.04888 86.5191
lradius 54.3128
lwrist 104.157
lhand -23.5793 45.7631
lfingers 7.12502
lthumb 2.88369 75.7233
rfemur -5.49529 10.9881 28.4136
rtibia 26.1846
rfoot -24.2182 -14.7446
rtoes 0.920554
lfemur -37.0044 7.23639 -21.0636
ltibia 28.5696
lfoot 4.56265 10.5045
ltoes 5.2563
2531
root -0.230132 18.3654 -0.763101 -172.816 39.986 182.703
lowerback 9.45275 3.47919 -0.231219
upperback 4.85498 5.0827 -5.07932
thorax 0.223192 2.83122 -5.60414
lowerneck -7.03005 11.796 -2.42582
upperneck 29.2047 20.1624 0.925932
head 10.1824 9.80032 2.90212
rclavicle 9.93923e-015 -5.56597e-014
rhumerus -8.3423 54.6214 -94.8666
rradius 110.014
rwrist -2.54061
rhand -43.9387 15.4546
rfingers 7.12502
rthumb -16.7622 -13.8418
lclavicle 9.93923e-015 -5.56597e-014
lhumerus -5.0128 9.49447 86.9919
lradius 53.1097
lwrist 103.631
lhand -22.9441 45.4361
lfingers 7.12502
lthumb 3.49711 75.3871
rfemur -5.64847 11.2181 28.3514
rtibia 25.9521
rfoot -24.1229 -15.2335
rtoes 0.816785
lfemur -37.1209 7.39426 -21.0153
ltibia 28.2932
lfoot 5.24914 9.86773
ltoes 4.14186
2532
root -0.276394 18.3748 -0.693722 -172.928 39.894 182.55
lowerback 9.60724 3.53366 -0.479068
upperback 4.83115 5.13319 -5.09052
thorax 0.0985884 2.85203 -5.4951
lowerneck -7.08732 11.7902 -2.54231
upperneck 29.0841 20.1078 1.00897
head 10.1255 9.77408 2.93369
rclavicle -1.39149e-014 9.54166e-015
rhumerus -9.09018 55.094 -95.3895
rradius 109.407
rwrist -1.65918
rhand -43.9242 15.7279
rfingers 7.12502
rthumb -16.7482 -13.5697
lclavicle -1.39149e-014 9.54166e-015
lhumerus -4.71511 10.8618 87.404
lradius 51.9053
lwrist 102.853
lhand -22.2608 44.8934
lfingers 7.12502
lthumb 4.15696 74.8326
rfemur -5.79868 11.426 28.2739
rtibia 25.7807
rfoot -23.905 -15.7788
rtoes 0.436783
lfemur -37.1627 7.39969 -20.9072
ltibia 27.9644
lfoot 5.85852 9.33365
ltoes 3.73701
